{"title":"The.Legend.Of.Korra.S02E02.720p.WEB-DL.H264-PublicHD","uid":8917065,"size":760695554,"categoryP":"video","categoryS":"hd___tv_shows","magnet":"?xt=urn:btih:e12afe44b7490ac3e2275ce2e91648c9b1e1f2b7&amp;dn=The.Legend.Of.Korra.S02E02.720p.WEB-DL.H264-PublicHD&amp;tr=udp%3A%2F%2Ftracker.openbittorrent.com%3A80&amp;tr=udp%3A%2F%2Fopen.demonii.com%3A1337&amp;tr=udp%3A%2F%2Ftracker.coppersurfer.tk%3A6969&amp;tr=udp%3A%2F%2Fexodus.desync.com%3A6969","seeders":1,"leechers":0,"uploader":"DibyaTPB","files":2,"time":1379167538,"description":"                PublicHD - High-Definition Bittorrent Community\n      \n                           \n    \n              ----------------------------------------------------\n\nGeneral\nUnique ID                                : 214990990065752816387825100991797824881 (0xA1BDC2309A234D60919112B6021A8D71)\nComplete name                            : C:dumpThe.Legend.Of.Korra.S02E02.720p.WEB-DL.H264-PublicHD.mkv\nFormat                                   : Matroska\nFormat version                           : Version 2\nFile size                                : 725 MiB\nDuration                                 : 23mn 42s\nOverall bit rate                         : 4 279 Kbps\nEncoded date                             : UTC 2013-09-14 11:59:35\nWriting application                      : mkvmerge v5.8.0 ('No Sleep / Pillow') built on Sep  2 2012 15:37:04\nWriting library                          : libebml v1.2.3 + libmatroska v1.3.0\n\nVideo\nID                                       : 1\nFormat                                   : AVC\nFormat/Info                              : Advanced Video Codec\nFormat profile                           : &lt;a class=&quot;__cf_email__&quot; href=&quot;/cdn-cgi/l/email-protection&quot; data-cfemail=&quot;8dc5e4eae5cdc1bea3bc&quot;&gt;[email&amp;#160;protected]&lt;/a&gt;&lt;script cf-hash='f9e31' type=&quot;text/javascript&quot;&gt;\n/* &lt;![CDATA[ */!function(){try{var t=&quot;currentScript&quot;in document?document.currentScript:function(){for(var t=document.getElementsByTagName(&quot;script&quot;),e=t.length;e--;)if(t[e].getAttribute(&quot;cf-hash&quot;))return t[e]}();if(t&amp;&amp;t.previousSibling){var e,r,n,i,c=t.previousSibling,a=c.getAttribute(&quot;data-cfemail&quot;);if(a){for(e=&quot;&quot;,r=parseInt(a.substr(0,2),16),n=2;a.length-n;n+=2)i=parseInt(a.substr(n,2),16)^r,e+=String.fromCharCode(i);e=document.createTextNode(e),c.parentNode.replaceChild(e,c)}}}catch(u){}}();/* ]]&gt; */&lt;/script&gt;\nFormat settings, CABAC                   : No\nFormat settings, ReFrames                : 2 frames\nCodec ID                                 : V_MPEG4/ISO/AVC\nDuration                                 : 23mn 42s\nBit rate                                 : 3 810 Kbps\nWidth                                    : 1 280 pixels\nHeight                                   : 718 pixels\nDisplay aspect ratio                     : 16:9\nFrame rate                               : 23.976 fps\nColor space                              : YUV\nChroma subsampling                       : 4:2:0\nBit depth                                : 8 bits\nScan type                                : Progressive\nBits/(Pixel*Frame)                       : 0.173\nStream size                              : 646 MiB (89%)\nLanguage                                 : English\nDefault                                  : Yes\nForced                                   : No\nColor primaries                          : BT.709-5, BT.1361, IEC 61966-2-4, SMPTE RP177\nTransfer characteristics                 : BT.709-5, BT.1361\nMatrix coefficients                      : BT.709-5, BT.1361, IEC 61966-2-4 709, SMPTE RP177\n\nAudio\nID                                       : 2\nFormat                                   : AC-3\nFormat/Info                              : Audio Coding 3\nMode extension                           : CM (complete main)\nFormat settings, Endianness              : Big\nCodec ID                                 : A_AC3\nDuration                                 : 23mn 42s\nBit rate mode                            : Constant\nBit rate                                 : 384 Kbps\nChannel(s)                               : 6 channels\nChannel positions                        : Front: L C R, Side: L R, LFE\nSampling rate                            : 48.0 KHz\nBit depth                                : 16 bits\nCompression mode                         : Lossy\nStream size                              : 65.1 MiB (9%)\nLanguage                                 : English\nDefault                                  : Yes\nForced                                   : No\n\nText\nID                                       : 3\nFormat                                   : UTF-8\nCodec ID                                 : S_TEXT/UTF8\nCodec ID/Info                            : UTF-8 Plain Text\nLanguage                                 : English\nDefault                                  : No\nForced                                   : No\n\n","torrent":{"xt":"urn:btih:e12afe44b7490ac3e2275ce2e91648c9b1e1f2b7","amp;dn":"The.Legend.Of.Korra.S02E02.720p.WEB-DL.H264-PublicHD","amp;tr":["udp%3A%2F%2Ftracker.openbittorrent.com%3A80","udp%3A%2F%2Fopen.demonii.com%3A1337","udp%3A%2F%2Ftracker.coppersurfer.tk%3A6969","udp%3A%2F%2Fexodus.desync.com%3A6969"],"infoHash":"e12afe44b7490ac3e2275ce2e91648c9b1e1f2b7","infoHashBuffer":{"type":"Buffer","data":[225,42,254,68,183,73,10,195,226,39,92,226,233,22,72,201,177,225,242,183]},"announce":[],"urlList":[]}}